PathFileType	4	(X/Y/Z)	c:/Users/goper/Files/vsCode/490R/osim_files/C08/C08_Fast_05.trc
DataRate	CameraRate	NumFrames	NumMarkers	Units                	OrigDataRate	OrigDataStartFrame	OrigNumFrames
250.00	250.00	9	36	mm	250.0	796	2121
                Frame#	Time	LPSIS			LASIS			LTH1			LTH2			LTH3			LTH4			LLFE			LMFE			LSH1			LSH2			LSH3			LSH4			LLMAL			LMMAL			LCAL			LMTP5			LTOE			LMTP1			RPSIS			RASIS			RTH1			RTH2			RTH3			RTH4			RLFE			RMFE			RSH1			RSH2			RSH3			RSH4			RLMAL			RMMAL			RCAL			RMTP1			RTOE			RMTP5		
		X1	Y1	Z1	X2	Y2	Z2	X3	Y3	Z3	X4	Y4	Z4	X5	Y5	Z5	X6	Y6	Z6	X7	Y7	Z7	X8	Y8	Z8	X9	Y9	Z9	X10	Y10	Z10	X11	Y11	Z11	X12	Y12	Z12	X13	Y13	Z13	X14	Y14	Z14	X15	Y15	Z15	X16	Y16	Z16	X17	Y17	Z17	X18	Y18	Z18	X19	Y19	Z19	X20	Y20	Z20	X21	Y21	Z21	X22	Y22	Z22	X23	Y23	Z23	X24	Y24	Z24	X25	Y25	Z25	X26	Y26	Z26	X27	Y27	Z27	X28	Y28	Z28	X29	Y29	Z29	X30	Y30	Z30	X31	Y31	Z31	X32	Y32	Z32	X33	Y33	Z33	X34	Y34	Z34	X35	Y35	Z35	X36	Y36	Z36

796	3.18000	598.81097	1051.50757	209.97665	396.34048	1013.88129	303.53125	419.21231	737.12744	381.01282	391.48959	662.66400	371.04956	367.64096	592.80798	370.33258	317.30899	693.38898	364.59439	358.44867	546.39447	363.93170	322.34283	538.93091	237.06682	448.41861	485.99286	365.31549	474.22617	445.47891	365.13748	399.17920	449.33600	372.55496	430.23785	414.31992	367.98862	637.82141	229.06052	309.45883	605.65643	218.25351	226.14220	694.12915	251.81908	247.26932	595.16943	107.75127	345.34924	528.09424	89.36905	293.65790	563.35992	89.00316	238.04213	595.85370	1052.49841	150.29189	397.52539	1022.11786	64.00719	456.62140	751.43097	10.16816	456.24796	674.43280	31.36642	454.76743	594.82935	46.14260	383.71689	680.96973	61.09741	453.00208	524.80389	63.71555	462.83344	522.68103	186.55965	509.61893	440.88486	46.28276	504.59592	396.05222	44.03241	448.53113	439.67996	59.19416	451.76071	395.02731	55.68165	528.40698	100.41521	113.72925	499.55765	105.96117	204.17125	587.48712	77.54769	183.15506	372.88260	46.18465	192.60194	354.54062	64.33722	139.35683	405.86371	45.93013	78.65043
797	3.18400	593.50677	1052.03638	210.31186	390.75244	1015.08221	302.83548	411.78992	738.77289	381.12027	382.18204	663.83716	370.68939	358.51291	594.60510	370.24466	308.84659	694.92578	363.45566	348.56363	548.54413	363.61029	313.77634	541.09955	236.62798	438.59824	486.06525	364.71149	463.68048	445.23129	364.73083	388.77377	450.24405	372.08640	420.16989	415.47543	369.12866	623.42450	225.45906	309.89185	591.45776	215.08568	226.25458	680.17010	246.57585	247.77135	578.19556	105.33926	346.31378	510.63876	88.12698	294.62143	545.53088	86.91027	239.00705	590.67322	1052.99768	150.58759	392.41794	1022.31964	63.97744	454.14160	751.95978	10.00130	453.49786	674.58771	31.38566	452.50385	594.77319	46.41989	381.04263	680.58777	61.30604	451.69089	524.92792	63.73599	461.48810	522.87274	186.63289	508.74112	441.25165	46.40702	503.84210	396.41513	44.15913	447.61435	439.84546	59.22149	451.02859	395.21402	55.70607	528.13861	100.57428	113.95049	499.35129	106.12190	204.28590	587.35748	77.80665	183.30063	372.80106	46.13245	192.62169	354.44382	64.20351	139.32681	405.80887	45.93210	78.63445
798	3.18800	588.25140	1052.53992	210.62091	385.09821	1016.22821	302.05548	403.90997	740.08246	381.34637	373.79724	665.40143	370.82791	349.50061	596.35742	370.09204	301.40381	697.93481	363.29584	339.22845	550.27985	363.26062	305.31805	543.13379	236.13997	428.91714	486.10532	364.06137	453.22220	444.92880	364.35425	378.51437	451.15717	371.56915	409.77527	416.35260	369.64444	608.79871	221.72740	310.64502	576.82800	211.77649	226.80699	666.26294	241.44194	248.17903	561.02948	102.87016	347.28012	493.10696	86.99680	295.60376	527.74347	85.09290	239.92206	585.50323	1053.46301	150.83766	387.59702	1022.58154	63.82668	451.52026	752.35413	9.95127	450.77249	674.75970	31.37711	450.26233	594.73584	46.67831	378.35309	680.24603	61.53022	450.35901	525.04889	63.78087	460.21509	523.03778	186.66254	507.80032	441.62689	46.55789	503.01797	396.76404	44.28104	446.66812	440.00711	59.24627	450.19370	395.43005	55.73315	527.86267	100.72340	114.13205	498.91870	106.38148	204.50967	587.68060	78.17015	183.40144	372.47766	46.14889	192.80600	354.34308	64.07159	139.31418	405.77945	45.92463	78.62221
799	3.19200	582.98163	1053.03479	210.96208	379.53897	1017.26074	301.29944	396.09235	741.41779	381.59421	366.29041	667.22894	371.46484	340.50824	598.04614	369.89566	293.82031	699.32050	362.63144	330.07217	552.04108	362.89621	296.95923	545.17358	235.65958	419.29272	486.05807	363.38638	442.82706	444.60324	363.93445	368.57108	452.21011	371.08786	398.56979	416.49530	368.84531	594.24768	218.01070	311.00656	562.07141	208.41011	227.33537	652.17676	236.15918	248.60747	543.64929	100.42051	348.28653	475.55753	85.90446	296.53351	509.89960	83.18367	240.85519	580.39777	1053.89099	151.09398	382.10608	1022.95947	63.65961	446.81503	752.10663	10.15855	448.03503	674.87122	31.45084	448.05121	594.72339	46.91072	375.61752	679.82568	61.80342	448.32742	525.06610	63.71299	458.84796	523.21191	186.76085	506.81711	441.95276	46.68531	501.52377	396.97137	44.29393	445.69540	440.17563	59.26272	449.38998	395.57245	55.78653	527.58423	100.97945	114.30893	498.37653	106.76566	204.65456	587.40070	78.53786	183.56447	372.37305	46.10036	192.80399	354.21060	63.92682	139.28072	405.72263	45.91549	78.62109
800	3.19600	577.74005	1053.48572	211.30299	373.90601	1018.19305	300.47528	388.33716	742.66644	381.80444	357.23392	668.44141	371.03711	331.72751	599.80603	369.61502	285.10080	702.34277	362.33041	320.99783	553.74854	362.43686	288.83337	547.02856	235.10304	409.86487	485.98288	362.69818	432.51221	444.15952	363.50003	358.28772	452.85342	370.61523	386.99033	416.18826	367.39911	579.53979	214.21423	311.38867	547.16602	205.00676	227.85240	638.03711	230.85118	248.89354	526.34943	98.03451	349.14624	458.48755	84.45926	296.82120	492.73343	80.72118	241.40410	575.28241	1054.28137	151.32828	378.91641	1022.66748	63.71002	443.52338	752.24158	10.17267	445.27109	674.95111	31.53298	445.87845	594.74237	47.10999	372.92340	679.43250	62.04065	446.99518	525.15723	63.77445	457.40567	523.42322	186.83267	505.78040	442.31781	46.81712	500.69467	397.29102	44.46457	444.58096	440.25809	59.32898	448.64005	395.89026	55.74507	527.29266	101.25801	114.47731	498.19855	106.90128	204.79919	587.24854	78.79230	183.69243	372.24792	46.05149	192.79242	354.07330	63.79822	139.24907	405.66272	45.89247	78.61039
801	3.20000	572.48303	1053.90784	211.64102	368.40042	1019.21997	299.62589	380.63559	743.87866	382.07251	349.13840	669.92395	371.12335	323.03979	601.42218	369.26895	277.31671	704.35919	361.47830	312.01111	555.46790	361.95230	280.79657	548.83154	234.58405	400.47781	485.81348	362.02344	422.19232	443.78296	362.74210	348.35913	453.61414	370.17523	376.08005	416.38034	366.87885	564.72070	210.35097	311.74774	532.15350	201.55989	228.41939	623.66235	225.35411	249.24109	508.75873	95.58909	350.14972	440.59424	83.51900	297.76797	474.48276	79.03427	242.28235	570.14667	1054.64429	151.56989	375.45670	1022.48730	63.33811	440.19128	752.36090	10.22135	443.15497	675.22253	31.35306	443.75229	594.79907	47.26901	370.43869	678.99475	62.25364	445.55655	525.19348	63.86886	456.00775	523.62897	186.95859	504.68829	442.58310	47.00531	499.85376	397.61737	44.63650	443.49802	440.36966	59.36761	447.71866	396.01071	55.77432	527.03772	101.57284	114.64976	497.93564	107.06042	204.94832	587.09705	79.08257	183.84157	372.12665	46.00599	192.78391	353.93680	63.67694	139.21584	405.59204	45.89146	78.62898
802	3.20400	567.26538	1054.28076	212.00145	362.75613	1019.71771	298.81476	373.36252	744.95886	382.22913	341.10031	671.28003	371.15140	314.47922	602.99072	368.89798	269.59515	705.94995	360.80612	303.31033	557.06665	361.45633	272.89828	550.57056	234.05630	391.20670	485.51398	361.23578	412.03674	442.96121	362.76721	338.52512	454.26355	369.70950	365.65079	416.68701	366.92383	549.80548	206.45457	312.12537	517.19330	198.05188	228.86830	609.14148	219.80048	249.62872	491.23730	93.16907	351.08099	422.76843	82.56224	298.75656	456.22037	77.35497	243.19305	565.06433	1054.93176	151.86375	369.51758	1022.58820	63.62880	436.72299	752.31964	10.35424	440.37579	675.30029	31.42672	441.68085	594.89984	47.38064	367.16885	678.57404	62.43142	444.01767	525.21204	63.95595	454.45474	523.76813	187.09395	503.55280	442.89822	47.17029	498.96408	397.91687	44.82841	443.06500	441.09213	58.34562	446.70673	396.10602	55.88088	526.79517	101.86240	114.84659	497.77899	107.16927	205.07780	586.87018	79.31163	184.04298	372.00394	45.95508	192.81767	353.80936	63.55343	139.21547	405.55637	45.87864	78.62386
803	3.20800	562.03241	1054.56531	212.40135	357.19769	1020.30609	298.07205	366.99597	745.63733	382.23282	334.15344	673.36963	371.83420	306.03458	604.48224	368.50940	262.03488	707.97137	359.90866	294.67862	558.59790	360.90863	265.12842	552.20947	233.51776	382.03717	485.07217	360.64398	401.92291	442.21790	362.44608	328.94260	455.03909	370.44455	355.45407	417.24567	367.65054	534.78998	202.47095	312.49979	501.89395	194.55548	229.35980	594.42444	214.12860	249.99792	473.33142	90.87831	352.01306	404.75873	81.68060	299.75015	437.84348	75.67241	244.15347	559.99286	1055.16736	152.12129	366.01468	1022.31873	63.27209	433.48792	752.45020	10.40409	437.57617	675.32574	31.54663	439.67221	595.05115	47.43776	364.39014	678.15302	62.63149	442.44739	525.26074	64.04552	452.76465	523.80487	187.21458	502.35300	443.18509	47.36703	497.97482	398.20654	45.06200	441.12152	440.54361	59.49535	445.65811	396.18735	55.96936	526.53687	102.14822	115.02537	499.74704	107.10854	203.90427	586.66711	79.54189	184.23776	371.85001	45.92954	192.83621	353.69482	63.44044	139.20802	405.49475	45.87898	78.62396
804	3.21200	556.79767	1054.77917	212.80313	351.64447	1020.83105	297.28433	358.33496	747.14044	382.62994	325.22311	673.76758	371.21521	297.73334	605.88007	368.06650	254.54860	709.38727	359.26270	286.17206	560.01715	360.35226	257.67078	553.69287	232.93436	372.98465	484.51440	360.01767	391.85803	441.38269	362.17352	319.28369	455.66339	370.07758	344.66324	416.84177	366.55020	519.63116	198.44518	312.89175	486.57178	191.12906	229.33266	579.56708	208.39107	250.37410	455.46213	88.60209	352.94373	386.63620	80.96747	300.83133	419.24371	74.24195	245.12964	554.91626	1055.34229	152.46919	360.07285	1022.26257	63.56577	430.10886	752.38647	10.51946	434.86359	675.37042	31.64763	437.73450	595.25916	47.43324	361.62302	677.71082	62.80566	440.76996	525.26306	64.15871	450.90509	523.78040	187.33020	501.06812	443.41257	47.60470	496.97504	398.48764	45.26878	440.66257	441.31396	58.48432	444.53595	396.23434	56.08716	526.21918	102.40507	115.23334	499.43695	107.28663	204.03819	586.47906	79.79764	184.44658	371.73538	45.86364	192.81438	353.54929	63.31703	139.20621	405.44598	45.85328	78.64078
